<mxfile host="app.diagrams.net" modified="2020-09-23T02:29:16.992Z" agent="5.0 (Macintosh; Intel Mac OS X 10_15_6) AppleWebKit/605.1.15 (KHTML, like Gecko) Version/13.1.2 Safari/605.1.15" etag="DSyqzxa5yXP9QOUYrvET" version="13.7.4" type="github">
  <diagram name="Page-1" id="e7e014a7-5840-1c2e-5031-d8a46d1fe8dd">
    <mxGraphModel dx="1892" dy="2104" grid="1" gridSize="10" guides="1" tooltips="1" connect="1" arrows="1" fold="1" page="1" pageScale="1" pageWidth="1169" pageHeight="826" background="#ffffff" math="0" shadow="0">
      <root>
        <mxCell id="0" />
        <mxCell id="1" parent="0" />
        <mxCell id="o9tcD4hmygBaCGeAGvL4-41" value="" style="whiteSpace=wrap;html=1;aspect=fixed;" vertex="1" parent="1">
          <mxGeometry x="550" y="-310" width="1016" height="1016" as="geometry" />
        </mxCell>
        <mxCell id="o9tcD4hmygBaCGeAGvL4-79" style="edgeStyle=none;rounded=0;orthogonalLoop=1;jettySize=auto;html=1;exitX=0.5;exitY=0.5;exitDx=0;exitDy=0;exitPerimeter=0;entryX=0;entryY=0.5;entryDx=0;entryDy=0;endArrow=none;endFill=0;strokeColor=#000000;" edge="1" parent="1" source="o9tcD4hmygBaCGeAGvL4-42" target="o9tcD4hmygBaCGeAGvL4-47">
          <mxGeometry relative="1" as="geometry" />
        </mxCell>
        <mxCell id="o9tcD4hmygBaCGeAGvL4-42" value="Employee" style="shape=umlActor;verticalLabelPosition=bottom;verticalAlign=top;html=1;outlineConnect=0;" vertex="1" parent="1">
          <mxGeometry x="340" y="20" width="30" height="60" as="geometry" />
        </mxCell>
        <mxCell id="o9tcD4hmygBaCGeAGvL4-43" value="Manager" style="shape=umlActor;verticalLabelPosition=bottom;verticalAlign=top;html=1;outlineConnect=0;" vertex="1" parent="1">
          <mxGeometry x="340" y="340" width="30" height="60" as="geometry" />
        </mxCell>
        <mxCell id="o9tcD4hmygBaCGeAGvL4-80" style="edgeStyle=none;rounded=0;orthogonalLoop=1;jettySize=auto;html=1;exitX=0;exitY=0.5;exitDx=0;exitDy=0;endArrow=none;endFill=0;strokeColor=#000000;entryX=0.5;entryY=0.5;entryDx=0;entryDy=0;entryPerimeter=0;" edge="1" parent="1" source="o9tcD4hmygBaCGeAGvL4-46" target="o9tcD4hmygBaCGeAGvL4-42">
          <mxGeometry relative="1" as="geometry">
            <mxPoint x="360" y="50" as="targetPoint" />
          </mxGeometry>
        </mxCell>
        <mxCell id="o9tcD4hmygBaCGeAGvL4-83" style="edgeStyle=none;rounded=0;orthogonalLoop=1;jettySize=auto;html=1;exitX=0;exitY=0.5;exitDx=0;exitDy=0;entryX=0.5;entryY=0.5;entryDx=0;entryDy=0;entryPerimeter=0;endArrow=none;endFill=0;strokeColor=#000000;" edge="1" parent="1" source="o9tcD4hmygBaCGeAGvL4-46" target="o9tcD4hmygBaCGeAGvL4-43">
          <mxGeometry relative="1" as="geometry" />
        </mxCell>
        <mxCell id="o9tcD4hmygBaCGeAGvL4-46" value="" style="ellipse;whiteSpace=wrap;html=1;strokeColor=#B5739D;fillColor=#E6D0DE;" vertex="1" parent="1">
          <mxGeometry x="720" y="-240" width="120" height="80" as="geometry" />
        </mxCell>
        <mxCell id="o9tcD4hmygBaCGeAGvL4-47" value="&lt;font face=&quot;Garamond&quot;&gt;Request&amp;nbsp;&lt;/font&gt;" style="ellipse;whiteSpace=wrap;html=1;strokeColor=#B5739D;fillColor=#E6D0DE;" vertex="1" parent="1">
          <mxGeometry x="640" y="-37" width="120" height="80" as="geometry" />
        </mxCell>
        <mxCell id="o9tcD4hmygBaCGeAGvL4-75" style="edgeStyle=orthogonalEdgeStyle;rounded=0;orthogonalLoop=1;jettySize=auto;html=1;exitX=0;exitY=0.5;exitDx=0;exitDy=0;entryX=1;entryY=0.5;entryDx=0;entryDy=0;endArrow=none;endFill=0;strokeColor=#000000;" edge="1" parent="1" source="o9tcD4hmygBaCGeAGvL4-48" target="o9tcD4hmygBaCGeAGvL4-47">
          <mxGeometry relative="1" as="geometry">
            <Array as="points">
              <mxPoint x="790" y="-97" />
              <mxPoint x="790" y="3" />
            </Array>
          </mxGeometry>
        </mxCell>
        <mxCell id="o9tcD4hmygBaCGeAGvL4-48" value="" style="ellipse;whiteSpace=wrap;html=1;strokeColor=#B5739D;fillColor=#E6D0DE;fontStyle=1" vertex="1" parent="1">
          <mxGeometry x="830" y="-137" width="120" height="80" as="geometry" />
        </mxCell>
        <mxCell id="o9tcD4hmygBaCGeAGvL4-78" style="edgeStyle=orthogonalEdgeStyle;rounded=0;orthogonalLoop=1;jettySize=auto;html=1;exitX=0;exitY=0.5;exitDx=0;exitDy=0;endArrow=none;endFill=0;strokeColor=#000000;" edge="1" parent="1" source="o9tcD4hmygBaCGeAGvL4-49">
          <mxGeometry relative="1" as="geometry">
            <mxPoint x="790" y="3" as="targetPoint" />
          </mxGeometry>
        </mxCell>
        <mxCell id="o9tcD4hmygBaCGeAGvL4-99" style="edgeStyle=none;rounded=0;orthogonalLoop=1;jettySize=auto;html=1;exitX=1;exitY=0.5;exitDx=0;exitDy=0;entryX=0;entryY=0.5;entryDx=0;entryDy=0;dashed=1;startArrow=classic;startFill=1;endArrow=none;endFill=0;strokeColor=#000000;fontFamily=Garamond;" edge="1" parent="1" source="o9tcD4hmygBaCGeAGvL4-49" target="o9tcD4hmygBaCGeAGvL4-98">
          <mxGeometry relative="1" as="geometry" />
        </mxCell>
        <mxCell id="o9tcD4hmygBaCGeAGvL4-49" value="&lt;font face=&quot;Garamond&quot;&gt;Overtime&lt;/font&gt;" style="ellipse;whiteSpace=wrap;html=1;strokeColor=#B5739D;fillColor=#E6D0DE;" vertex="1" parent="1">
          <mxGeometry x="830" y="-37" width="120" height="80" as="geometry" />
        </mxCell>
        <mxCell id="o9tcD4hmygBaCGeAGvL4-50" value="&lt;font face=&quot;Garamond&quot;&gt;Log In&lt;/font&gt;" style="text;html=1;strokeColor=none;fillColor=none;align=center;verticalAlign=middle;whiteSpace=wrap;rounded=0;" vertex="1" parent="1">
          <mxGeometry x="760" y="-210" width="40" height="20" as="geometry" />
        </mxCell>
        <mxCell id="o9tcD4hmygBaCGeAGvL4-91" style="edgeStyle=none;rounded=0;orthogonalLoop=1;jettySize=auto;html=1;exitX=0;exitY=0.5;exitDx=0;exitDy=0;entryX=0.5;entryY=0.5;entryDx=0;entryDy=0;entryPerimeter=0;endArrow=none;endFill=0;strokeColor=#000000;fontFamily=Garamond;" edge="1" parent="1" source="o9tcD4hmygBaCGeAGvL4-51" target="o9tcD4hmygBaCGeAGvL4-42">
          <mxGeometry relative="1" as="geometry" />
        </mxCell>
        <mxCell id="o9tcD4hmygBaCGeAGvL4-51" value="&lt;font face=&quot;Garamond&quot;&gt;Submit Timesheet&lt;/font&gt;" style="ellipse;whiteSpace=wrap;html=1;strokeColor=#B5739D;fillColor=#E6D0DE;" vertex="1" parent="1">
          <mxGeometry x="640" y="90" width="120" height="80" as="geometry" />
        </mxCell>
        <mxCell id="o9tcD4hmygBaCGeAGvL4-81" style="edgeStyle=none;rounded=0;orthogonalLoop=1;jettySize=auto;html=1;exitX=0;exitY=0.5;exitDx=0;exitDy=0;endArrow=none;endFill=0;strokeColor=#000000;entryX=0.5;entryY=0.5;entryDx=0;entryDy=0;entryPerimeter=0;" edge="1" parent="1" source="o9tcD4hmygBaCGeAGvL4-52" target="o9tcD4hmygBaCGeAGvL4-42">
          <mxGeometry relative="1" as="geometry">
            <mxPoint x="360" y="50" as="targetPoint" />
          </mxGeometry>
        </mxCell>
        <mxCell id="o9tcD4hmygBaCGeAGvL4-52" value="&lt;font face=&quot;Garamond&quot;&gt;Clock&lt;/font&gt;" style="ellipse;whiteSpace=wrap;html=1;strokeColor=#B5739D;fillColor=#E6D0DE;" vertex="1" parent="1">
          <mxGeometry x="640" y="231" width="120" height="80" as="geometry" />
        </mxCell>
        <mxCell id="o9tcD4hmygBaCGeAGvL4-73" style="edgeStyle=orthogonalEdgeStyle;rounded=0;orthogonalLoop=1;jettySize=auto;html=1;exitX=0;exitY=0.5;exitDx=0;exitDy=0;entryX=1;entryY=0.5;entryDx=0;entryDy=0;endArrow=none;endFill=0;strokeColor=#000000;" edge="1" parent="1" source="o9tcD4hmygBaCGeAGvL4-53" target="o9tcD4hmygBaCGeAGvL4-52">
          <mxGeometry relative="1" as="geometry">
            <Array as="points">
              <mxPoint x="790" y="224" />
              <mxPoint x="790" y="271" />
            </Array>
          </mxGeometry>
        </mxCell>
        <mxCell id="o9tcD4hmygBaCGeAGvL4-53" value="&lt;font face=&quot;Garamond&quot;&gt;Clock In&lt;/font&gt;" style="ellipse;whiteSpace=wrap;html=1;strokeColor=#B5739D;fillColor=#E6D0DE;" vertex="1" parent="1">
          <mxGeometry x="830" y="184" width="120" height="80" as="geometry" />
        </mxCell>
        <mxCell id="o9tcD4hmygBaCGeAGvL4-74" style="edgeStyle=orthogonalEdgeStyle;rounded=0;orthogonalLoop=1;jettySize=auto;html=1;exitX=0;exitY=0.5;exitDx=0;exitDy=0;endArrow=none;endFill=0;strokeColor=#000000;" edge="1" parent="1" source="o9tcD4hmygBaCGeAGvL4-54">
          <mxGeometry relative="1" as="geometry">
            <mxPoint x="790" y="270" as="targetPoint" />
          </mxGeometry>
        </mxCell>
        <mxCell id="o9tcD4hmygBaCGeAGvL4-54" value="&lt;font face=&quot;Garamond&quot;&gt;Clock Out&lt;/font&gt;" style="ellipse;whiteSpace=wrap;html=1;strokeColor=#B5739D;fillColor=#E6D0DE;" vertex="1" parent="1">
          <mxGeometry x="830" y="284" width="120" height="80" as="geometry" />
        </mxCell>
        <mxCell id="o9tcD4hmygBaCGeAGvL4-84" style="edgeStyle=none;rounded=0;orthogonalLoop=1;jettySize=auto;html=1;exitX=0;exitY=0.5;exitDx=0;exitDy=0;endArrow=none;endFill=0;strokeColor=#000000;entryX=0.5;entryY=0.5;entryDx=0;entryDy=0;entryPerimeter=0;" edge="1" parent="1" source="o9tcD4hmygBaCGeAGvL4-55" target="o9tcD4hmygBaCGeAGvL4-43">
          <mxGeometry relative="1" as="geometry">
            <mxPoint x="360" y="370" as="targetPoint" />
          </mxGeometry>
        </mxCell>
        <mxCell id="o9tcD4hmygBaCGeAGvL4-55" value="&lt;font face=&quot;Garamond&quot;&gt;Approve&lt;/font&gt;" style="ellipse;whiteSpace=wrap;html=1;strokeColor=#B5739D;fillColor=#E6D0DE;" vertex="1" parent="1">
          <mxGeometry x="640" y="509" width="120" height="80" as="geometry" />
        </mxCell>
        <mxCell id="o9tcD4hmygBaCGeAGvL4-70" style="edgeStyle=orthogonalEdgeStyle;rounded=0;orthogonalLoop=1;jettySize=auto;html=1;exitX=0;exitY=0.5;exitDx=0;exitDy=0;entryX=1;entryY=0.5;entryDx=0;entryDy=0;endArrow=none;endFill=0;strokeColor=#000000;" edge="1" parent="1" source="o9tcD4hmygBaCGeAGvL4-56" target="o9tcD4hmygBaCGeAGvL4-55">
          <mxGeometry relative="1" as="geometry">
            <Array as="points">
              <mxPoint x="790" y="449" />
              <mxPoint x="790" y="549" />
            </Array>
          </mxGeometry>
        </mxCell>
        <mxCell id="o9tcD4hmygBaCGeAGvL4-56" value="" style="ellipse;whiteSpace=wrap;html=1;strokeColor=#B5739D;fillColor=#E6D0DE;fontStyle=1" vertex="1" parent="1">
          <mxGeometry x="830" y="409" width="120" height="80" as="geometry" />
        </mxCell>
        <mxCell id="o9tcD4hmygBaCGeAGvL4-71" style="edgeStyle=orthogonalEdgeStyle;rounded=0;orthogonalLoop=1;jettySize=auto;html=1;exitX=0;exitY=0.5;exitDx=0;exitDy=0;endArrow=none;endFill=0;strokeColor=#000000;" edge="1" parent="1" source="o9tcD4hmygBaCGeAGvL4-57">
          <mxGeometry relative="1" as="geometry">
            <mxPoint x="790" y="549" as="targetPoint" />
          </mxGeometry>
        </mxCell>
        <mxCell id="o9tcD4hmygBaCGeAGvL4-57" value="" style="ellipse;whiteSpace=wrap;html=1;strokeColor=#B5739D;fillColor=#E6D0DE;" vertex="1" parent="1">
          <mxGeometry x="830" y="509" width="120" height="80" as="geometry" />
        </mxCell>
        <mxCell id="o9tcD4hmygBaCGeAGvL4-72" style="edgeStyle=orthogonalEdgeStyle;rounded=0;orthogonalLoop=1;jettySize=auto;html=1;exitX=0;exitY=0.5;exitDx=0;exitDy=0;endArrow=none;endFill=0;strokeColor=#000000;" edge="1" parent="1" source="o9tcD4hmygBaCGeAGvL4-58">
          <mxGeometry relative="1" as="geometry">
            <mxPoint x="790" y="550" as="targetPoint" />
            <Array as="points">
              <mxPoint x="790" y="649" />
            </Array>
          </mxGeometry>
        </mxCell>
        <mxCell id="o9tcD4hmygBaCGeAGvL4-58" value="" style="ellipse;whiteSpace=wrap;html=1;strokeColor=#B5739D;fillColor=#E6D0DE;" vertex="1" parent="1">
          <mxGeometry x="830" y="609" width="120" height="80" as="geometry" />
        </mxCell>
        <mxCell id="o9tcD4hmygBaCGeAGvL4-82" value="Text" style="text;html=1;align=center;verticalAlign=middle;resizable=0;points=[];autosize=1;" vertex="1" parent="1">
          <mxGeometry x="2580" y="800" width="40" height="20" as="geometry" />
        </mxCell>
        <mxCell id="o9tcD4hmygBaCGeAGvL4-85" value="Time off" style="text;html=1;strokeColor=none;fillColor=none;align=center;verticalAlign=middle;whiteSpace=wrap;rounded=0;fontFamily=Garamond;" vertex="1" parent="1">
          <mxGeometry x="870" y="-107" width="40" height="20" as="geometry" />
        </mxCell>
        <mxCell id="o9tcD4hmygBaCGeAGvL4-88" value="&lt;font face=&quot;Garamond&quot;&gt;Timesheet&lt;/font&gt;" style="text;html=1;strokeColor=none;fillColor=none;align=center;verticalAlign=middle;whiteSpace=wrap;rounded=0;" vertex="1" parent="1">
          <mxGeometry x="870" y="435.5" width="40" height="27" as="geometry" />
        </mxCell>
        <mxCell id="o9tcD4hmygBaCGeAGvL4-89" value="&lt;font face=&quot;Garamond&quot;&gt;Time off&lt;/font&gt;" style="text;html=1;strokeColor=none;fillColor=none;align=center;verticalAlign=middle;whiteSpace=wrap;rounded=0;" vertex="1" parent="1">
          <mxGeometry x="870" y="539" width="40" height="20" as="geometry" />
        </mxCell>
        <mxCell id="o9tcD4hmygBaCGeAGvL4-90" value="&lt;font face=&quot;Garamond&quot;&gt;Overtime&lt;/font&gt;" style="text;html=1;strokeColor=none;fillColor=none;align=center;verticalAlign=middle;whiteSpace=wrap;rounded=0;" vertex="1" parent="1">
          <mxGeometry x="870" y="639" width="40" height="20" as="geometry" />
        </mxCell>
        <mxCell id="o9tcD4hmygBaCGeAGvL4-96" value="&amp;lt;&amp;lt;include&amp;gt;&amp;gt;" style="edgeStyle=none;rounded=0;orthogonalLoop=1;jettySize=auto;html=1;exitX=0;exitY=0.5;exitDx=0;exitDy=0;entryX=1;entryY=0.5;entryDx=0;entryDy=0;endArrow=none;endFill=0;fontFamily=Garamond;dashed=1;startArrow=classic;startFill=1;" edge="1" parent="1" source="o9tcD4hmygBaCGeAGvL4-94" target="o9tcD4hmygBaCGeAGvL4-46">
          <mxGeometry relative="1" as="geometry" />
        </mxCell>
        <mxCell id="o9tcD4hmygBaCGeAGvL4-94" value="" style="ellipse;whiteSpace=wrap;html=1;strokeColor=#B5739D;fillColor=#E6D0DE;" vertex="1" parent="1">
          <mxGeometry x="910" y="-300" width="120" height="80" as="geometry" />
        </mxCell>
        <mxCell id="o9tcD4hmygBaCGeAGvL4-97" value="&amp;lt;&amp;lt;extend&amp;gt;&amp;gt;" style="edgeStyle=none;rounded=0;orthogonalLoop=1;jettySize=auto;html=1;exitX=0;exitY=0.5;exitDx=0;exitDy=0;entryX=1;entryY=0.5;entryDx=0;entryDy=0;dashed=1;startArrow=none;startFill=0;endArrow=classic;endFill=1;strokeColor=#000000;fontFamily=Garamond;" edge="1" parent="1" source="o9tcD4hmygBaCGeAGvL4-95" target="o9tcD4hmygBaCGeAGvL4-46">
          <mxGeometry relative="1" as="geometry" />
        </mxCell>
        <mxCell id="o9tcD4hmygBaCGeAGvL4-95" value="" style="ellipse;whiteSpace=wrap;html=1;strokeColor=#B5739D;fillColor=#E6D0DE;" vertex="1" parent="1">
          <mxGeometry x="998" y="-210" width="120" height="80" as="geometry" />
        </mxCell>
        <mxCell id="o9tcD4hmygBaCGeAGvL4-100" style="edgeStyle=none;rounded=0;orthogonalLoop=1;jettySize=auto;html=1;exitX=0;exitY=0.5;exitDx=0;exitDy=0;entryX=1;entryY=0.5;entryDx=0;entryDy=0;dashed=1;startArrow=none;startFill=0;endArrow=classic;endFill=1;strokeColor=#000000;fontFamily=Garamond;" edge="1" parent="1" source="o9tcD4hmygBaCGeAGvL4-98" target="o9tcD4hmygBaCGeAGvL4-48">
          <mxGeometry relative="1" as="geometry" />
        </mxCell>
        <mxCell id="o9tcD4hmygBaCGeAGvL4-105" value="&amp;lt;&amp;lt;extend&amp;gt;&amp;gt;" style="edgeLabel;html=1;align=center;verticalAlign=middle;resizable=0;points=[];fontFamily=Garamond;" vertex="1" connectable="0" parent="o9tcD4hmygBaCGeAGvL4-100">
          <mxGeometry x="0.0988" y="1" relative="1" as="geometry">
            <mxPoint as="offset" />
          </mxGeometry>
        </mxCell>
        <mxCell id="o9tcD4hmygBaCGeAGvL4-102" style="edgeStyle=none;rounded=0;orthogonalLoop=1;jettySize=auto;html=1;exitX=0;exitY=0.5;exitDx=0;exitDy=0;entryX=1;entryY=0.5;entryDx=0;entryDy=0;dashed=1;startArrow=none;startFill=0;endArrow=classic;endFill=1;strokeColor=#000000;fontFamily=Garamond;" edge="1" parent="1" source="o9tcD4hmygBaCGeAGvL4-98" target="o9tcD4hmygBaCGeAGvL4-56">
          <mxGeometry relative="1" as="geometry" />
        </mxCell>
        <mxCell id="o9tcD4hmygBaCGeAGvL4-103" style="edgeStyle=none;rounded=0;orthogonalLoop=1;jettySize=auto;html=1;exitX=0;exitY=0.5;exitDx=0;exitDy=0;entryX=1;entryY=0.5;entryDx=0;entryDy=0;dashed=1;startArrow=none;startFill=0;endArrow=classic;endFill=1;strokeColor=#000000;fontFamily=Garamond;" edge="1" parent="1" source="o9tcD4hmygBaCGeAGvL4-98" target="o9tcD4hmygBaCGeAGvL4-57">
          <mxGeometry relative="1" as="geometry" />
        </mxCell>
        <mxCell id="o9tcD4hmygBaCGeAGvL4-104" style="edgeStyle=none;rounded=0;orthogonalLoop=1;jettySize=auto;html=1;exitX=0;exitY=0.5;exitDx=0;exitDy=0;entryX=1;entryY=0.5;entryDx=0;entryDy=0;dashed=1;startArrow=none;startFill=0;endArrow=classic;endFill=1;strokeColor=#000000;fontFamily=Garamond;" edge="1" parent="1" source="o9tcD4hmygBaCGeAGvL4-98" target="o9tcD4hmygBaCGeAGvL4-58">
          <mxGeometry relative="1" as="geometry" />
        </mxCell>
        <mxCell id="o9tcD4hmygBaCGeAGvL4-98" value="&lt;font face=&quot;Garamond&quot;&gt;Notification&lt;/font&gt;" style="ellipse;whiteSpace=wrap;html=1;strokeColor=#B5739D;fillColor=#E6D0DE;" vertex="1" parent="1">
          <mxGeometry x="1200" y="90" width="120" height="80" as="geometry" />
        </mxCell>
        <mxCell id="o9tcD4hmygBaCGeAGvL4-106" value="&amp;lt;&amp;lt;extend&amp;gt;&amp;gt;" style="edgeLabel;html=1;align=center;verticalAlign=middle;resizable=0;points=[];fontFamily=Garamond;" vertex="1" connectable="0" parent="1">
          <mxGeometry x="1071.6241692601825" y="2.9954728997877638" as="geometry">
            <mxPoint x="-32" y="42" as="offset" />
          </mxGeometry>
        </mxCell>
        <mxCell id="o9tcD4hmygBaCGeAGvL4-107" value="&amp;lt;&amp;lt;extend&amp;gt;&amp;gt;" style="edgeLabel;html=1;align=center;verticalAlign=middle;resizable=0;points=[];fontFamily=Garamond;" vertex="1" connectable="0" parent="1">
          <mxGeometry x="1071.6241692601825" y="283.9954728997878" as="geometry" />
        </mxCell>
        <mxCell id="o9tcD4hmygBaCGeAGvL4-108" value="&amp;lt;&amp;lt;extend&amp;gt;&amp;gt;" style="edgeLabel;html=1;align=center;verticalAlign=middle;resizable=0;points=[];fontFamily=Garamond;" vertex="1" connectable="0" parent="1">
          <mxGeometry x="1091.6241692601825" y="35.705472899787765" as="geometry">
            <mxPoint x="-52" y="346" as="offset" />
          </mxGeometry>
        </mxCell>
        <mxCell id="o9tcD4hmygBaCGeAGvL4-109" value="&amp;lt;&amp;lt;extend&amp;gt;&amp;gt;" style="edgeLabel;html=1;align=center;verticalAlign=middle;resizable=0;points=[];fontFamily=Garamond;" vertex="1" connectable="0" parent="1">
          <mxGeometry x="1101.6241692601825" y="45.705472899787765" as="geometry">
            <mxPoint x="-62" y="418" as="offset" />
          </mxGeometry>
        </mxCell>
      </root>
    </mxGraphModel>
  </diagram>
</mxfile>
